<?xml version="1.0" encoding="UTF-8" standalone="no"?>
<!DOCTYPE svg PUBLIC "-//W3C//DTD SVG 1.1//EN" "http://www.w3.org/Graphics/SVG/1.1/DTD/svg11.dtd">
<!-- Created with Vectornator (http://vectornator.io/) -->
<svg height="100%" stroke-miterlimit="10" style="fill-rule:nonzero;clip-rule:evenodd;stroke-linecap:round;stroke-linejoin:round;" version="1.1" viewBox="0 0 926 428" width="100%" xml:space="preserve" xmlns="http://www.w3.org/2000/svg" xmlns:xlink="http://www.w3.org/1999/xlink">

<g>
<g fill="#000000" opacity="1" stroke="none">
<path clip-path="url(#TextBounds)" d="M150.206 288.871L150.206 139.658L114.281 139.658L114.281 198.633L59.2021 198.633L59.2021 139.658L23.2772 139.658L23.2772 288.871L59.2021 288.871L59.2021 227.802L114.281 227.802L114.281 288.871L150.206 288.871Z"/>
<path clip-path="url(#TextBounds)" d="M165.686 245.205C165.736 250.631 166.786 256.072 168.836 261.526C170.885 266.981 174.218 271.982 178.833 276.53C183.448 281.077 189.6 284.728 197.288 287.482C204.976 290.237 214.496 291.614 225.846 291.614C238.866 291.614 249.932 289.631 259.045 285.665C268.158 281.699 275.116 276.105 279.918 268.883C284.72 261.661 287.122 253.178 287.122 243.434C287.122 234.001 285.204 226.39 281.369 220.6C277.534 214.809 272.525 210.339 266.341 207.189C260.157 204.039 253.464 201.775 246.261 200.399L224.644 195.992C218.187 194.713 213.235 192.805 209.786 190.267C206.337 187.73 204.612 184.462 204.612 180.464C204.612 175.498 206.555 171.498 210.441 168.462C214.328 165.426 219.824 163.908 226.929 163.908C232.317 163.908 236.79 164.802 240.346 166.59C243.903 168.378 246.597 170.665 248.428 173.453C250.259 176.24 251.275 179.188 251.475 182.295L284.597 182.295C284.521 173.784 282.181 166.099 277.576 159.241C272.972 152.383 266.393 146.934 257.839 142.894C249.285 138.853 239.009 136.833 227.011 136.833C215.923 136.833 205.994 138.632 197.225 142.23C188.456 145.828 181.535 151.094 176.464 158.026C171.392 164.958 168.856 173.383 168.856 183.301C168.856 191.948 170.627 199.15 174.168 204.904C177.709 210.659 182.483 215.198 188.488 218.522C194.494 221.845 201.156 224.248 208.476 225.732L229.573 230.279C236.89 231.802 242.416 233.797 246.151 236.261C249.886 238.726 251.754 242.323 251.754 247.053C251.754 250.343 250.853 253.283 249.051 255.872C247.249 258.461 244.541 260.494 240.929 261.97C237.316 263.445 232.757 264.183 227.25 264.183C222.864 264.183 219.004 263.662 215.67 262.62C212.336 261.577 209.528 260.161 207.247 258.37C204.965 256.579 203.204 254.547 201.964 252.273C200.723 249.999 200.015 247.643 199.84 245.205L165.686 245.205Z"/>
<path clip-path="url(#TextBounds)" d="M335.859 288.871L335.859 196.272L337.434 196.272L369.212 266.452L390.314 266.452L421.95 196.272L423.491 196.272L423.491 288.871L455.788 288.871L455.788 139.658L419.026 139.658L380.568 224.366L379.42 224.366L340.997 139.658L303.951 139.658L303.951 288.871L335.859 288.871Z"/>
<path clip-path="url(#TextBounds)" d="M515.56 288.871L515.56 139.658L479.635 139.658L479.635 288.871L515.56 288.871Z"/>
<path clip-path="url(#TextBounds)" d="M602.251 139.658L539.216 139.658L539.216 288.871L574.502 288.871L574.502 235.536L595.163 235.536L620.442 288.871L660.199 288.871L630.481 230.508C633.911 229.095 637.71 226.658 641.878 223.198C646.046 219.738 649.645 215.138 652.675 209.397C655.705 203.657 657.22 196.681 657.22 188.472C657.22 179.115 655.195 170.753 651.145 163.385C647.095 156.017 641.01 150.221 632.89 145.995C624.77 141.77 614.557 139.658 602.251 139.658ZM574.502 210.093L574.502 166.593L596.939 166.593C603.432 166.593 608.928 168.437 613.428 172.124C617.928 175.811 620.178 181.353 620.178 188.75C620.178 195.819 618.015 201.143 613.688 204.723C609.361 208.303 603.676 210.093 596.633 210.093L574.502 210.093Z"/>
<path clip-path="url(#TextBounds)" d="M696.989 288.871L706.793 254.47L753.04 254.47L762.702 288.871L800.924 288.871L753.045 139.658L709.275 139.658L661.112 288.871L696.989 288.871ZM730.952 171.851L746.556 228.497L713.419 228.497L729.307 171.851L730.952 171.851Z"/>
<path clip-path="url(#TextBounds)" d="M911.139 260.373L846.622 260.373L846.622 226.907L907.134 226.907L907.134 200.65L846.622 200.65L846.622 168.156L911.139 168.156L911.139 139.658L811.052 139.658L811.052 288.871L911.139 288.871L911.139 260.373Z"/>
</g>
</g>
</svg>
